<svg width="213" height="213" viewBox="0 0 213 213" fill="none" xmlns="http://www.w3.org/2000/svg">
<path d="M174.66 115.02H178.92V127.8H53.25V115.02H57.51V36.21H174.66V115.02Z" fill="#60BE92"/>
<path d="M178.92 115.02H53.25V127.8H178.92V115.02Z" fill="#FED5B3"/>
<path d="M174.66 36.21H57.51V115.02H66.03V47.925C66.03 44.9835 68.4135 42.6 71.355 42.6H162.945C165.887 42.6 168.27 44.9835 168.536 46.3275L168.27 115.02H174.66V36.21Z" fill="#F69272"/>
<path d="M178.92 129.93H53.25C52.0721 129.93 51.12 128.976 51.12 127.8V115.02C51.12 113.844 52.0721 112.89 53.25 112.89H55.38V36.21C55.38 35.0342 56.3321 34.08 57.51 34.08H174.66C175.838 34.08 176.79 35.0342 176.79 36.21V112.89H178.92C180.098 112.89 181.05 113.844 181.05 115.02V127.8C181.05 128.976 180.098 129.93 178.92 129.93ZM55.38 125.67H176.79V117.15H174.66C173.482 117.15 172.53 116.196 172.53 115.02V38.34H59.64V115.02C59.64 116.196 58.6879 117.15 57.51 117.15H55.38V125.67Z" fill="#1F212B"/>
<path d="M173.595 117.15H94.785C94.1971 117.15 93.72 116.673 93.72 116.085C93.72 115.497 94.1971 115.02 94.785 115.02H173.595C174.183 115.02 174.66 115.497 174.66 116.085C174.66 116.673 174.183 117.15 173.595 117.15Z" fill="#1F212B"/>
<path d="M86.265 117.15H79.875C79.2871 117.15 78.81 116.673 78.81 116.085C78.81 115.497 79.2871 115.02 79.875 115.02H86.265C86.8529 115.02 87.33 115.497 87.33 116.085C87.33 116.673 86.8529 117.15 86.265 117.15Z" fill="#1F212B"/>
<path d="M75.615 117.15H73.485C72.8972 117.15 72.42 116.673 72.42 116.085C72.42 115.497 72.8972 115.02 73.485 115.02H75.615C76.2029 115.02 76.68 115.497 76.68 116.085C76.68 116.673 76.2029 117.15 75.615 117.15Z" fill="#1F212B"/>
<path d="M167.205 117.061C166.617 117.061 166.14 116.583 166.14 115.996V88.395C166.14 87.8071 166.617 87.33 167.205 87.33C167.793 87.33 168.27 87.8071 168.27 88.395V115.996C168.27 116.586 167.793 117.061 167.205 117.061Z" fill="#1F212B"/>
<path d="M167.205 55.38C166.617 55.38 166.14 54.9029 166.14 54.315V47.925C166.14 46.1635 164.706 44.73 162.945 44.73H71.355C70.7671 44.73 70.29 44.2529 70.29 43.665C70.29 43.0772 70.7671 42.6 71.355 42.6H162.945C165.882 42.6 168.27 44.9899 168.27 47.925V54.315C168.27 54.9029 167.793 55.38 167.205 55.38Z" fill="#1F212B"/>
<path d="M167.205 85.2C166.617 85.2 166.14 84.7229 166.14 84.135V73.485C166.14 72.8972 166.617 72.42 167.205 72.42C167.793 72.42 168.27 72.8972 168.27 73.485V84.135C168.27 84.7229 167.793 85.2 167.205 85.2Z" fill="#1F212B"/>
<path d="M167.205 70.29C166.617 70.29 166.14 69.8129 166.14 69.225V64.965C166.14 64.3771 166.617 63.9 167.205 63.9C167.793 63.9 168.27 64.3771 168.27 64.965V69.225C168.27 69.8129 167.793 70.29 167.205 70.29Z" fill="#1F212B"/>
<path d="M55.38 70.29C61.2618 70.29 66.03 65.5219 66.03 59.64C66.03 53.7582 61.2618 48.99 55.38 48.99C49.4981 48.99 44.73 53.7582 44.73 59.64C44.73 65.5219 49.4981 70.29 55.38 70.29Z" fill="#EAD6C7"/>
<path d="M55.38 72.42C48.3319 72.42 42.6 66.6882 42.6 59.64C42.6 52.5918 48.3319 46.86 55.38 46.86C62.4282 46.86 68.16 52.5918 68.16 59.64C68.16 66.6882 62.4282 72.42 55.38 72.42ZM55.38 51.12C50.6813 51.12 46.86 54.9412 46.86 59.64C46.86 64.3388 50.6813 68.16 55.38 68.16C60.0788 68.16 63.9 64.3388 63.9 59.64C63.9 54.9412 60.0788 51.12 55.38 51.12Z" fill="#1F212B"/>
<path d="M55.38 170.4C55.38 173.929 58.2405 176.79 61.77 176.79C65.2994 176.79 68.16 173.929 68.16 170.4C68.16 168.085 68.16 112.34 68.16 95.85C68.16 95.85 80.8377 103.882 80.9719 103.94C81.6343 104.223 82.3479 104.37 83.07 104.37H96.915C99.8565 104.37 102.24 101.987 102.24 99.045C102.24 96.1035 99.8565 93.72 96.915 93.72H84.3927C84.3927 93.72 84.3927 93.72 75.9345 86.9339C68.7798 81.1935 63.2333 78.81 55.38 78.81C43.616 78.81 34.08 86.4397 34.08 95.85C34.08 95.85 34.08 121.664 34.08 124.605C34.08 127.547 36.4634 129.93 39.405 129.93C42.3465 129.93 42.6 129.93 42.6 129.93C42.6 145.541 42.6 168.112 42.6 170.4C42.6 173.929 45.4605 176.79 48.99 176.79C52.5194 176.79 55.38 173.929 55.38 170.4C55.38 169.158 55.38 132.06 55.38 132.06V170.4Z" fill="#C6DFF1"/>
<path d="M61.77 178.92C59.2289 178.92 56.9413 177.802 55.38 176.03C53.8187 177.802 51.5311 178.92 48.99 178.92C44.2912 178.92 40.47 175.099 40.47 170.4V132.06H39.405C35.2941 132.06 31.95 128.716 31.95 124.605V95.85C31.95 85.281 42.4616 76.68 55.38 76.68C63.5273 76.68 69.4593 79.0081 77.2658 85.2724L85.1425 91.59H96.915C101.026 91.59 104.37 94.9341 104.37 99.045C104.37 103.156 101.026 106.5 96.915 106.5H83.07C82.0519 106.5 81.0657 106.298 80.1327 105.897C79.9453 105.818 79.8622 105.782 70.29 99.7224V170.4C70.29 175.099 66.4688 178.92 61.77 178.92ZM57.51 170.4C57.51 172.749 59.4206 174.66 61.77 174.66C64.1194 174.66 66.03 172.749 66.03 170.4V95.85C66.03 95.0726 66.4517 94.359 67.1334 93.9841C67.8128 93.6071 68.6456 93.6327 69.3017 94.0502C73.9472 96.9917 80.9059 101.397 81.9305 102.029C82.299 102.17 82.6781 102.24 83.07 102.24H96.915C98.6765 102.24 100.11 100.807 100.11 99.045C100.11 97.2835 98.6765 95.85 96.915 95.85H84.3927C83.9071 95.85 83.4385 95.6839 83.0594 95.3814L74.599 88.5931C67.5572 82.9422 62.5262 80.94 55.38 80.94C44.8088 80.94 36.21 87.6282 36.21 95.85V124.605C36.21 126.367 37.6435 127.8 39.405 127.8H42.6C43.7779 127.8 44.73 128.754 44.73 129.93V170.4C44.73 172.749 46.6406 174.66 48.99 174.66C51.3394 174.66 53.25 172.749 53.25 170.4V132.06C53.25 130.884 54.2021 129.93 55.38 129.93C56.5579 129.93 57.51 130.884 57.51 132.06V170.4Z" fill="#1F212B"/>
<path d="M43.665 132.06C43.0772 132.06 42.6 131.583 42.6 130.995V96.915C42.6 96.3271 43.0772 95.85 43.665 95.85C44.2529 95.85 44.73 96.3271 44.73 96.915V130.995C44.73 131.583 44.2529 132.06 43.665 132.06Z" fill="#1F212B"/>
<path d="M101.175 97.98C100.902 97.98 100.63 97.8756 100.421 97.669C100.006 97.2537 100.006 96.5785 100.421 96.1631L130.241 66.3431C130.656 65.9278 131.331 65.9278 131.747 66.3431C132.162 66.7585 132.162 67.4337 131.747 67.849L101.927 97.669C101.72 97.8756 101.448 97.98 101.175 97.98Z" fill="#1F212B"/>
</svg>
