<svg width="120" height="120" viewBox="0 0 120 120" fill="none" xmlns="http://www.w3.org/2000/svg">
<path d="M22.5 66.0691V59.5711C22.5 47.1631 32.592 37.0711 45 37.0711C57.408 37.0711 67.5 47.1631 67.5 59.5711V66.0691H22.5Z" fill="#8BB7F0"/>
<path d="M45 38.5711C56.58 38.5711 66 47.9911 66 59.5711V64.5721H24V59.5711C24 47.9911 33.42 38.5711 45 38.5711ZM45 35.5711C31.746 35.5711 21 46.3171 21 59.5711V67.5721H69V59.5711C69 46.3171 58.254 35.5711 45 35.5711Z" fill="#4E7AB5"/>
<path d="M97.392 115.5C96.663 110.418 92.28 106.5 87 106.5H33C27.72 106.5 23.337 110.418 22.608 115.5H10.5V61.5H109.5V115.5H97.392Z" fill="#F5CE85"/>
<path d="M108 63V114H98.619C97.284 108.831 92.58 105 87 105H33C27.42 105 22.716 108.831 21.381 114H12V63H108ZM111 60H9V117H24C24 112.029 28.029 108 33 108H87C91.971 108 96 112.029 96 117H111V60Z" fill="#967A44"/>
<path d="M82.5 55.5V54C82.5 48.21 87.21 43.5 93 43.5C98.79 43.5 103.5 48.21 103.5 54V55.5H82.5Z" fill="#FFEEA3"/>
<path d="M93 45C97.962 45 102 49.038 102 54H84C84 49.038 88.038 45 93 45ZM93 42C86.373 42 81 47.373 81 54C81 54 81 55.59 81 57H105C105 55.59 105 54 105 54C105 47.373 99.627 42 93 42Z" fill="#BA9B48"/>
<path d="M4.5 55.5H115.5V64.5H4.5V55.5Z" fill="#F5CE85"/>
<path d="M114 57V63H6V57H114ZM117 54H3V66H117V54Z" fill="#967A44"/>
<path d="M45 4.5C43.2272 4.5 41.4717 4.84919 39.8338 5.52763C38.1959 6.20606 36.7077 7.20047 35.4541 8.45406C34.2005 9.70765 33.2061 11.1959 32.5276 12.8338C31.8492 14.4717 31.5 16.2272 31.5 18C31.5 19.7728 31.8492 21.5283 32.5276 23.1662C33.2061 24.8041 34.2005 26.2923 35.4541 27.5459C36.7077 28.7995 38.1959 29.7939 39.8338 30.4724C41.4717 31.1508 43.2272 31.5 45 31.5C46.7728 31.5 48.5283 31.1508 50.1662 30.4724C51.8041 29.7939 53.2924 28.7995 54.5459 27.5459C55.7995 26.2923 56.7939 24.8041 57.4724 23.1662C58.1508 21.5283 58.5 19.7728 58.5 18C58.5 16.2272 58.1508 14.4717 57.4724 12.8338C56.7939 11.1959 55.7995 9.70765 54.5459 8.45406C53.2924 7.20047 51.8041 6.20606 50.1662 5.52763C48.5283 4.84919 46.7728 4.5 45 4.5Z" fill="#FFEEA3"/>
<path d="M45 6C51.618 6 57 11.382 57 18C57 24.618 51.618 30 45 30C38.382 30 33 24.618 33 18C33 11.382 38.382 6 45 6ZM45 3C36.717 3 30 9.717 30 18C30 26.283 36.717 33 45 33C53.283 33 60 26.283 60 18C60 9.717 53.283 3 45 3Z" fill="#BA9B48"/>
<path d="M88.5 40.5H97.5" stroke="#BA9B48"/>
</svg>
