<svg width="370" height="411" viewBox="0 0 370 411" fill="none" xmlns="http://www.w3.org/2000/svg">
<path d="M139.383 0.00379032C124.941 1.03588 111.53 2.2973 98.1193 6.42561C91.0128 9.12048 82.015 13.7648 73.8196 13.7648C72.5015 13.7648 71.4699 13.5928 70.1518 13.3061C67.057 12.2741 64.9938 10.0952 61.8991 10.0952C58.8043 10.0952 55.5949 11.242 54.5633 13.3061C53.5317 15.3703 54.5633 16.2877 54.5633 18.3518C53.5317 26.6085 41.0381 29.0166 38.9749 36.2412C37.9433 40.3695 39.0895 45.4152 38.0579 49.5435C35.9947 56.7681 29.0029 59.7496 23.8449 62.8458C14.5606 69.0383 7.45415 76.3775 2.29621 86.6983C1.26463 88.7625 0.00378853 90.5973 0.00378853 92.6614C0.00378853 96.7897 6.19332 101.033 8.25649 104.129C12.3828 109.289 11.2366 116.743 9.17346 122.936C7.11028 129.128 2.98393 134.289 0.920756 139.449C-0.110825 141.513 0.00378853 143.463 0.00378853 144.495L3.21317 147.706C12.4975 154.93 20.7502 161.925 27.9713 170.182C32.0976 175.342 35.1924 176.26 40.3503 179.356C44.8206 182.051 49.8639 184.86 54.5633 184.86C55.3084 184.86 56.168 185.032 56.8557 184.86C62.0137 183.828 66.8278 179.356 71.9857 179.356C75.0805 179.356 79.4361 181.649 82.5308 181.649C83.2186 181.764 83.677 181.649 84.3648 181.649C89.8666 181.649 95.3684 178.439 99.9532 176.604C101.329 176.03 102.876 175.686 104.538 175.686C109.123 175.686 114.395 177.693 117.376 180.732C120.47 182.796 121.617 186.925 124.711 188.989C126.603 190.365 128.551 190.823 130.672 190.823C133.193 190.823 135.772 190.135 138.007 188.989C142.134 192.085 146.26 199.997 146.26 204.126C146.26 208.254 144.311 211.58 145.343 214.676C146.375 226.029 147.292 231.992 154.513 241.281C161.734 250.569 165.975 260.087 165.975 272.472C164.943 284.857 155.888 294.949 155.888 307.334C155.888 320.751 171.133 331.186 174.228 343.571C175.259 347.699 175.488 352.745 176.52 356.873C178.583 366.162 182.366 374.304 187.524 382.561C189.587 385.657 192.911 388.065 193.942 392.193V398.156C193.942 403.317 197.954 408.477 203.112 410.541C203.972 410.828 204.831 411 205.863 411C208.442 411 211.651 410.369 214.574 409.624C225.922 408.592 246.324 404.349 253.545 394.028C258.073 387.606 260.766 379.464 265.924 374.304C269.019 371.208 271.999 368.341 270.968 364.212C269.936 362.148 269.134 361.116 269.134 360.084C269.134 358.02 273.031 356.873 275.094 356.873H281.513C286.671 355.841 288.505 349.534 287.473 345.406C286.441 340.245 281.283 337.264 279.22 332.103C278.189 331.071 278.303 329.925 278.303 328.892C278.303 324.764 285.524 317.769 290.682 314.673C296.872 311.577 304.093 308.48 307.188 302.288C309.251 297.127 309.251 291.852 307.188 286.692C305.125 276.371 300.884 267.197 299.852 256.876C297.789 246.556 304.322 236.35 309.48 227.061C313.607 220.868 319.796 215.593 325.986 211.465C346.617 195.984 366.905 170.297 370 144.495C362.779 150.687 350.514 154.93 340.199 155.962C337.104 155.962 334.009 155.618 331.946 154.586C329.883 153.554 327.934 151.605 326.903 149.54C320.713 142.316 317.618 131.88 310.397 125.688C306.271 122.592 302.03 120.642 298.935 116.514C294.809 112.386 292.746 106.193 290.682 100.001C284.493 82.4553 284.607 68.0062 277.386 50.4609C275.323 46.3326 273.26 41.2869 269.134 41.2869H261.798C260.48 41.4589 259.391 41.7456 258.13 41.7456C245.121 41.7456 232.741 32.6289 219.617 29.8194C218.357 29.418 216.924 29.3607 215.491 29.3607C213.485 29.3607 211.651 29.5327 210.448 30.7368C207.353 33.833 208.499 39.1081 205.404 42.2043C204.201 43.4084 201.908 44.0391 199.903 44.0391C198.47 44.0391 197.037 43.5231 195.776 43.1217C192.682 42.0896 190.618 40.1401 187.524 38.076C177.208 30.8514 156.576 27.8699 146.26 20.6453C148.323 17.5491 149.355 14.5676 150.386 11.4713C151.418 8.37509 149.355 2.98535 146.26 0.921193C144.197 -0.110878 141.446 0.00379032 139.383 0.00379032ZM112.332 32.5716L129.755 44.4978C138.409 50.5756 148.61 54.3025 157.722 57.3414C162.135 58.8322 168.955 60.7244 171.477 62.3871C171.992 62.7312 172.451 63.4766 172.852 63.7633C175.603 65.7701 180.016 68.9236 186.607 71.1025C190.905 72.5359 195.375 73.396 199.903 73.396C209.875 73.396 219.388 69.8984 226.036 63.3046C233.658 66.4581 242.427 69.7837 253.087 70.6438C254.176 74.6574 255.379 79.0151 256.296 83.4874C257.901 91.2853 259.391 99.7713 262.715 109.175C265.237 116.743 268.962 127.064 276.928 135.779C281.742 141.685 287.129 145.24 290.682 147.706C290.969 147.878 290.854 147.992 291.141 148.164C292 149.368 293.376 151.949 294.35 153.669C296.471 157.396 299.107 161.983 302.603 166.512C306.271 172.189 311.429 177.005 317.274 180.273C314.523 182.854 311.543 185.319 308.563 187.613C298.133 194.665 290.396 202.062 284.722 210.548L284.264 211.465L283.805 212.841L282.888 214.217C276.813 225.111 267.644 241.281 270.968 261.005C271.942 269.261 274.177 276.257 276.011 282.564C276.584 284.513 276.928 286.692 277.386 288.527L275.552 289.444C272.801 291.05 248.96 305.9 248.96 328.892C248.96 331.817 249.304 334.741 249.877 337.149C243.573 342.998 239.791 351.025 239.791 360.084C236.753 364.27 234.346 368.455 232.455 372.01C231.767 373.329 231.251 374.591 230.621 375.68C228.73 376.655 225.119 377.916 220.534 378.891C217.898 372.584 213.829 368.341 211.823 366.047C208.041 359.912 206.092 355.038 204.946 349.993C204.774 349.018 204.602 347.814 204.487 346.782C204.144 343.858 203.628 340.188 202.654 336.232C199.903 325.108 193.828 317.138 188.899 310.544C187.867 309.168 186.664 307.391 185.69 305.957C186.263 304.352 187.294 302.001 187.982 300.453C190.733 294.031 194.401 285.431 195.318 274.766V272.472C195.318 254.411 189.816 238.758 177.895 223.391C175.66 220.524 175.316 220.41 174.686 213.759C175.145 211.408 175.603 207.853 175.603 204.126C175.603 190.479 167.293 173.68 155.888 165.136L141.217 154.586L135.715 157.338C127.405 150.4 115.828 146.329 104.538 146.329C99.0362 146.329 93.7637 147.132 88.9496 149.082C87.2303 149.77 85.7975 150.515 83.9063 151.375C83.7917 151.433 83.5624 151.777 83.4478 151.834C80.6396 151.088 76.4559 149.999 71.9857 149.999C64.8219 149.999 58.9189 152.293 54.5633 154.127C53.5317 153.497 52.7294 152.809 51.8124 152.293C51.4113 152.063 50.8382 151.605 50.437 151.375L49.9785 150.916C45.7375 146.043 40.6942 141.112 35.307 136.238C35.8801 134.862 36.6252 133.601 37.141 132.11C43.4451 113.246 39.548 99.5993 34.8485 91.2853C36.1667 90.1386 37.7141 89.2212 39.4334 88.0744L40.3503 87.157C47.113 83.3154 61.4406 75.5175 66.4839 57.8001V56.8827C67.1716 54.1879 67.6874 51.3783 67.8594 49.0848C69.8079 47.5367 72.1576 45.4725 74.2781 43.1217C86.4279 43.1217 96.6292 38.592 104.08 35.3238C105.283 34.8077 106.143 34.4064 107.289 33.9477C108.951 33.4316 110.67 32.9156 112.332 32.5716ZM363.123 264.216C360.2 270.523 356.532 278.034 351.661 281.188C347.764 283.309 342.606 285.259 340.657 289.444C337.734 294.662 340.714 300.74 339.74 305.957C339.74 308.079 338.88 310.258 337.906 312.379C336.932 317.597 337.792 324.133 339.74 329.351C340.714 332.505 342.778 336.576 345.7 337.608C347.649 337.608 350.629 336.518 352.578 334.397C354.526 332.275 356.188 328.376 357.162 325.223C358.137 322.069 358.079 318.744 358.079 315.59C359.054 306.129 363.925 296.611 365.874 287.151C366.848 280.844 366.848 274.651 365.874 268.344C365.129 266.796 364.326 265.821 363.581 265.133L363.123 264.216Z" fill="#5B5B5B" fill-opacity="0.2"/>
</svg>
